<svg xmlns="http://www.w3.org/2000/svg" width="394" height="122" fill="none" class="h-12 md:h-20 w-auto text-white md:text-red-750"><g fill="#B6272D"><path fill="#fff" d="m4.7 11.8 6 82.6 25.4 20.9 13.2 1.9 18.3-9.7 9.4-9.2 3.6-9.9 3-18.2V42.7l1.9-28.2v-3.7l-15.1 2.4-13.5-4.6-9.8-2.8-11.9 4.4-9.7 2-10.6 1-10.2-1.4z"/><path d="M91.1 5.3c-2.8 1.1-5.1 2.1-7.4 3-7.3 3-14.2 3.2-20.7 1.2C58.7 8.2 51.2 4.4 45.5 0c-5.7 4.4-13.2 8.2-17.4 9.5-6.5 2-13.4 1.8-20.7-1.2-2.3-.9-4.6-1.9-7.4-3C2 14.4 3.1 23 3.9 31.7c1.4 16.1.9 32.3.9 48.4 0 9 2 18 9.5 24 9.2 7.3 19.3 12.6 30.3 17.1.3.1.8.3 1 .5.2-.1.7-.4 1-.5 10.9-4.5 21.1-9.7 30.3-17.1 7.5-6 9.5-14.9 9.5-24 0-16.1-.6-32.3.9-48.4.6-8.6 1.8-17.3 3.8-26.4zM80.3 80.4c-.3 9.6-3.9 17.4-12.9 22.9-7 4.2-13.9 7.7-20.8 11.6-.3.2-.6.4-1 .5-.3-.1-.6-.3-1-.5-6.9-3.9-13.9-7.4-20.8-11.6-9.1-5.4-12.6-13.3-12.9-22.9-.4-13.2.1-26.5 0-39.8 0-8.5-1-17-2-26 6.9 1.6 13.5 2.5 20.1.8 6.5-1.7 16.6-6.8 16.6-6.8s10 5.1 16.6 6.8c6.6 1.7 13.3.8 20.1-.8-1 9-2 17.5-2 26-.1 13.3.4 26.5 0 39.8z"/><path d="M67.6 57.2v-5.4H42.3L40 48.2V41c0-.1.1-1.2 2.1-1.2 1.6 0 2.1.7 2.1 1.2v6.9h9.5v-7c0-.5-.2-2.2-1.9-2.2H41.6s-2.2 0-2.5 2.2v7.7l.8 1.3 1.3 2H23.5v5.4h21.1l8 12.7v7.5c0 .9-.3 2.7-1.8 2.7-1.9 0-2.2-1.9-2.2-1.9V71h-9.5v7.4c.4 2.5 4 2.8 4 2.8h8.3c1.5 0 1.9-1.5 2.1-2.3 0-.3.1-.5.1-.5v-8.8l-.5-.8-7.3-11.6h12v24.1c0 3.4-2.1 4-3.1 4.1H45v5h9.7c6.5-.3 7.7-5.3 7.9-7.7V57.2h5z"/><path d="M35.1 91.7V69.2c0-2.9 2.6-2.8 2.6-2.8H41v-4.6h-4.9c-3.1.3-4.4 2.2-5.1 4-.4 1-.5 2-.5 2.7v26.7c0 5.6 5.9 5.1 5.9 5.1h17.4v-4.7H40.2c-4.9.1-5.1-3.4-5.1-3.9zM18 24.7c-.3 0-.3-.2 0-.3 1.4-.4 3-1.1 4.8-1.9.8-.4 1.2-.4 1.7-.4.6.1.7.3.1.6-.2.1-.6.2-1.7.6.6.1.7.2.6.5-.1.4 0 1.2.5 3.4.9-.5 1.2-.6 1.4-.4 0 0-.3.4-1.2 1 .2.8.2 1.4.2 1.8 0 .6-.3.7-.6.2-.3-.4-.4-.6-.3-.8v-.7c-2 1.2-2.5 1.6-3.3 2.2-.6.5-.8.5-1.8 0-.4-.2-.4-.4 0-.5.4 0 1.1-.3 2.4-1l-.8-3.1c-.1-.7-.3-1.1-.5-1.3-.7.2-1.1.2-1.5.1zm13.1 7.8c.8-.3 1.4-.3 2.1.1.6.3.5.8-.6.9-1.2.1-3.1.4-5.6 1.1-1.3.4-3.7 1.2-4.7 1.7-.8.3-1.2.3-2.1 0-.3-.1-.3-.3.1-.4.9-.2 3.3-.8 5.9-1.6l-.3-1.4c-1.4.5-1.7.5-2.2.5-.5 0-.5-.2-.1-.4.7-.2 1.8-.6 2.1-.8l-.4-1.5c-1.5.5-1.8.6-2.6.6-.3 0-.3-.2-.1-.3 1.7-.6 2.2-.8 4.4-2 .6-.3 1.1-.4 1.5-.4.4 0 .5.4-.2.7-.6.3-1.8.8-2.1 1l.3 1.4c.2-.1.5-.2.7-.4.5-.2.8-.4 1.5-.3.4 0 .5.4-.1.7-.8.3-1.3.6-1.9.8L27 34c1.4-.6 2.8-1.1 4.1-1.5zm-10.8-8.2c.5.1.6.3.5.5-.1.2-.1.5 0 .8.6-.5.9-.6 1.3-.6s.5.2.2.4c-.5.3-.9.5-1.4.5l.2 1.2c.5-.4.9-.6 1.2-.6.4 0 .5.2.2.4-.5.3-1 .5-1.3.5l.3 1.3c.5-.3 1.2-.6 1.9-1.1-.1-.6-.4-2.2-.5-2.4-.2-.7-.4-1.3-.7-1.7-1 .5-1.3.5-1.9.8zm6.2 3.2c-.8-1.9-1.2-2.6-1.5-3-.3-.3-.2-.7.9-.4 1-.3 2.2-1 2.5-1.3.2-.2.4-.3 1-.2 1.1.2 1.2.4.9.8-.2.3-.4.7-.5 1.3-.1.3 0 .5.3.5.5.1.4.5 0 .6-1.3.5-2.2.8-3 1.2.1 1.1-.3 1.2-.6.5zm.5-1.1c1.6-.7 1.9-1 1.9-1.2 0-.3 0-.6-.1-1.4 0-.3-.1-.3-.6-.1-.4.2-1.1.5-1.9.8.2.7.4 1.2.7 1.9zm26.1.2c-2.6-.3-4.4-.2-7 0-.5.9-1 1.8-1.7 2.6 1.8-.1 4-.5 4.4-.7.6-.2.9-.2 1.6.2 1.2.7 1.2 1 .8 1.3-.2.2-.4.4-1 1.2-.3.4-.2.8-.1.9.4.3.3.6-.2.7-.4 0-2.6.1-4.8.2 0 .4-.1.6-.4.7-.2 0-.4-.2-.5-.7-.2-1.2-.4-2.3-.7-3.1-1.3 1.5-2.8 2.6-4.2 3.2-.8.3-1 .1-.2-.4 2-1.2 4.1-3.1 5.5-5.9-1.8.2-3.5.5-3.9.6-1 .2-1.2.2-1.8-.2-.6-.4-.5-.7 0-.6h1.8c1.5-.1 3-.3 4.3-.4.3-.8.4-1.2.3-1.5-.2-.7.1-.8.9-.5.8.3.9.5.5 1-.1.1-.2.2-.5.8 2.2-.2 3.8-.4 4.3-.5 1.1-.2 2.1-.3 2.8.2 1.1.5 1.1 1-.2.9zm-.8-4.4h-3c-.4.9-.8 1.7-1 2-.3.3-.6.2-.4-.3.1-.4.3-1 .5-1.6-.9.1-2.2.2-3.3.3v.9c0 .3-.1.8-.3.8-.2 0-.4-.5-.4-.8 0-.3 0-.5-.1-.8-1.1.1-1.4.2-2.1.3-.8.2-1 .1-1.4-.3-.5-.4-.4-.5.1-.5.6 0 1.6-.1 3.4-.2-.3-1-.5-1.5-.9-2-.3-.4-.1-.7.5-.5 1 .3 1.2.5 1.2 1.1v1.2c1.4-.1 2.3-.2 3.5-.4.3-1.3.3-1.7 0-2.3-.2-.4 0-.7 1-.2.9.4 1 .5.7 1-.2.3-.4.7-.6 1.3.3-.1.5-.1.8-.2.8-.2 1.6 0 2 .2.7.5.4 1-.2 1zm-3.8 7.1c-.6.1-2.1.2-3.7.4.1.6.2 1.6.4 2.7 3.4-.3 3.6-.4 3.8-.9.2-.8.3-1.2.3-1.7s-.2-.6-.8-.5zM61 31.8c-.4.5-.8.4-.8-.3 0-.6.3-1.1.5-1.3.3-.3.5-.6.9-1.1.2-.3.4-.2.4.2.1.9-.1 1.4-1 2.5zm10 3.1c-1.8.3-4.8-.5-6.1-1.8-1.1.5-2.4.8-4 .8-.5 0-.6-.3-.1-.3 1.3-.2 2.6-.6 3.7-1.1-.5-.8-.8-1.5-1.1-2.6-.1-.4-.1-.7.1-.7s.3.1.8 1.3c.2.6.6 1.3.9 1.7 2.1-1.2 3.5-2.7 3.7-3.2.2-.9.4-.9 1-.2.5.5.4.7 0 1-.2.1-.5.4-1.2 1-.9.8-1.7 1.3-2.9 2 .8.5 1.9.8 3.5 1 .7.1.8-.1.7-.4 0-.3-.1-.7-.3-1.2-.1-.4.1-.5.4-.1.6 1 1 1.5 1.3 1.7.6.5.5 1-.4 1.1zm-4.1-8.4c-1.8.4-3.9 1-4.1 1.1-.3.2-.7.1-1-.2-.5-.6-.3-.8.2-.7.4.1 1.6 0 2.7-.2l.4-1.8c-.6 0-1.1-.1-1.3-.2-.5-.3-.4-.5-.1-.5h1.6c.2-1 .3-1.5.1-1.8-.4-.1-.9-.2-1.3-.4-.5-.3-.4-.6.1-.5.5.1 2.1.1 2.6 0s1 0 1.4.2c.4.2.3.4-.2.6-.4.1-1 .1-1.7.1.3.2.3.4.2.6 0 .1-.2.5-.3 1.2h.3c.6-.1.7-.1 1 .1.3.1.2.5-.2.6-.3.1-.8.1-1.3.1l-.4 1.7c1.7-.3 1.9-.3 2-.2 0-.1-.1 0-.7.2zm-.9 3.6c-.2-.2-.5-.9-.7-1.4-.1-.4 0-.6.5-.4.7.3 1.2 1.1 1.1 1.5-.2.7-.6.8-.9.3zm6.3-2.1c-1.2-.3-2.3-.5-3.9-.4-.6 0-.7 0-1.1-.2-.5-.3-.4-.5.1-.5.6 0 1.3.1 1.9.1l.5-1.9c-.5-.1-.9-.2-1.1-.3-.4-.3-.3-.4.1-.4H70c.2-1.1.3-1.5.2-1.8-.2-.1-.5-.1-.7-.3-.5-.3-.4-.5.1-.5s2.4 0 3-.1c.4-.1.7 0 1 .2.3.1.3.6-.2.7-.5.1-1 .1-2.3.1.3.3.3.4.2.6-.1.1-.2.4-.3 1.1.3 0 .4 0 .6-.1.5-.1.9 0 1.3.2.3.2.1.6-.3.6h-1.8l-.7 1.9h1.7c.4 0 1 .2 1.2.4.5.4.4.9-.7.6zm.5 4.4c-.4-.5-1.1-1.3-1.7-2.1-.3-.3-.2-.6.3-.4 1.7.6 2.4 1.1 2.4 2.2-.1.7-.5.9-1 .3z"/></g><path fill="currentColor" d="M116.1 36.3c.4.3.6.7.6 1.2 0 .2-.1.2-.3.2h-2.2c.1.1.1.1.1.2s-.1.1-.1.2c-.1.4-.1 1-.1 2 0 3.5.1 6.2.2 8-.1.3-.2.6-.4.9-.3.3-.6.4-.7.4-.4 0-.7-.3-.9-.9-.2-.5-.4-.9-.4-1.1v-.1c-.6.2-1.3.5-1.9.7-1.8.6-3.2 1.3-4.5 2-.1.1-.2.1-.3.1-.3 0-.8-.4-1.4-1.1-.4-.5-.6-.9-.6-1.2 0-.2.1-.4.2-.4.3 0 .7.1 1.3.2.2 0 .8-.1 1.8-.2.2 0 .4 0 .6-.1l-.1-4.7c0-1-.1-2-.3-2.9 0-.4-.2-.7-.5-1.1h-.3c-.3 0-.7-.1-1.1-.4-.4-.2-.6-.4-.6-.6 0-.1 0-.2.1-.2 2-.2 3.7-.5 5.1-.7 1.5-.2 2.9-.5 4.4-.9.4-.1.7-.1 1-.1.4.1.9.3 1.3.6zm3.2 12.1c.5.5.8 1 .8 1.3 0 .3-.2.4-.5.5-.8.1-1.5.1-2.1.3-.9.2-1.7.4-2.4.5.1 0 .2.1.2.1.8.3 1.2.5 1.2.8-.1.1-.1.2-.1.3-.1.2-.1.5-.2 1 .8-.1 1.5-.3 2.3-.4.6-.1 1-.2 1.2-.2 1.1 0 1.7.4 1.7 1 0 .3-.2.4-.6.5-1.6.3-3.2.5-4.7.7-.1.6-.1 1.3-.1 2.1 3-.3 5.5-.6 7.3-.8h.5c.5 0 1.2.2 1.9.6.6.5.9.9.9 1.4 0 .4-.3.7-.9.7-.5 0-1.3-.1-2.5-.1-.8-.1-1.4-.1-1.9-.1-3.5 0-6.4.1-8.7.3-1.9.1-3.7.3-5.6.6-.4.1-.8.2-1.2.2-.5 0-1-.2-1.5-.6-.5-.4-.7-.7-.7-.8 0-.2.1-.4.2-.4 1.4 0 4.5-.2 9.1-.6.3 0 .6 0 .8-.1v-2c-1.7.2-2.8.3-3.3.3s-1-.1-1.3-.2c-.4-.1-.5-.3-.5-.4 0-.2.1-.4.2-.5 1.7-.2 3.3-.4 4.9-.6 0-.7-.1-1.2-.1-1.4-.1-.3-.2-.5-.3-.6-.1-.1-.1-.1-.1-.2-1.4.2-2.5.3-3.4.3-.8 0-1.3 0-1.3-.1s.1-.2.4-.2c1-.1 1.9-.3 2.9-.6 1.9-.5 3.4-1 4.5-1.6.7-.3 1.2-.7 1.5-1.2 0-.1.1-.1.2-.1.4-.4.7-.2 1.3.3zm-8.3-1.8c.5-.2.9-.3 1.1-.3.1-.5.1-.8.1-1.1.1-1.1.1-2.6.1-4.3-.1-1.5-.2-2.4-.4-2.9-.8.1-1.5.1-2.2.2-.5.1-1 .1-1.5.2.1.1.3.1.4.1.6.3 1 .6 1 .9 0 .1 0 .1-.1.2-.1.2-.1.6-.2 1.1.6-.1 1-.3 1.2-.3h.1c.8 0 1.3.2 1.3.7 0 .2-.1.4-.3.6-.5.1-1.2.1-2 .2h-.4l-.1 2c.7-.2 1.1-.3 1.3-.4h.1c.8 0 1.3.2 1.3.7 0 .3-.1.5-.3.6-.5.1-1.2.2-2 .3h-.5v2.1c.8-.3 1.4-.4 2-.6zm5.8-6.1c.3.1.5.3.6.3h.1c1.4-.3 2.6-.4 3.4-.6.4 0 .9-.1 1.3-.3h.3c.1 0 .7.3 1.7.8 1 .6 1.5 1 1.5 1.3 0 .1-.1.2-.3.3-.5.3-.8.6-1 .8-.3.4-.6.8-.9 1.4.3.5.4.8.4 1 0 .1-.1.1-.1.1-1.3 0-2.6.1-3.9.3-1.1.1-1.8.2-2 .2-.1.5-.3.7-.6.7s-.5-.1-.7-.3c-.2-.2-.3-.4-.3-.5-.2-.5-.4-1.4-.5-2.7-.1-.8-.3-1.3-.5-1.8-.1-.4-.3-.7-.5-.9 0-.1.3-.2.8-.2.3 0 .7.1 1.2.1zm2.8 3.9c.7-.1 1.3-.2 1.8-.4.1-.2.3-.5.4-.9.1-.4.2-.8.2-1.2 0-.4-.2-.5-.7-.6-.3 0-.8.1-1.3.1-.8.1-1.6.3-2.4.5l.2 2.7c.6.1 1.1 0 1.8-.2zm23.3 3.7c-.9 1.4-1.8 2.6-2.8 3.8 0 .1 0 .1 0 0 1.5-.1 2.8-.3 3.9-.5.9-.2 1.9-.5 2.8-.9.3-.1.6-.2.8-.2.5 0 1.2.3 2.3.8 1.2.8 1.8 1.4 1.8 1.8 0 .1-.1.2-.3.3-.5.2-.8.5-1.1.8-.5.5-.8 1.2-1.1 2.1 0 .1-.1.2-.1.3.4.7.7 1.1.7 1.4 0 .1-.1.1-.2.1-1.9 0-3.7.1-5.5.3-1.6.1-2.5.2-2.9.2-.1.6-.3.9-.7.9-.3 0-.6-.1-.8-.4-.2-.2-.4-.4-.4-.6-.2-.6-.4-1.6-.6-3.1-.1-.6-.2-1.2-.4-1.7-1 1-1.9 1.8-2.9 2.5-1.3 1-2.7 1.7-3.9 2.2-.5.2-.8.3-1 .3v-.1c2.1-1.7 3.9-3.4 5.6-5.1 1.1-1.2 2.1-2.5 3-3.9.3-.4.6-.8.8-1.2-1.7.2-3.4.6-5.1 1-.4.2-.8.3-1.3.3s-1.1-.2-1.7-.7c-.5-.4-.8-.7-.8-.9 0-.2.1-.4.2-.4 1.5 0 4.6-.3 9.4-.8.1-.3.3-.6.4-.9.2-.5.3-.9.3-1.2-.2-.3-.3-.6-.3-.9 0-.1.1-.2.4-.2.6 0 1.3.2 2.1.6.6.2.8.5.8.8 0 .1-.1.3-.2.4-.2.2-.4.5-.6.9 0 .1-.1.1-.1.1 3.5-.5 6.3-.9 8.4-1.3.2 0 .4-.1.5-.1.6 0 1.3.2 2.2.7.7.6 1.1 1.2 1.1 1.7s-.4.7-1.1.7c-.6 0-1.5-.1-2.8-.2-.9-.1-1.6-.2-2.2-.2-2.3.2-4.6.3-6.6.5zm-3.1-10.8c.6.1.9.3.9.6v2.2h.3c.8-.1 1.3-.1 1.5-.1.5 0 .8.1.8.3 0 .1-.1.2-.2.3-.7.2-1.5.5-2.3.7 0 .6 0 1.3.1 2 0 .4-.1.6-.2.6-.7 0-1.1-.2-1.1-.6-.1-.6-.3-1.1-.4-1.6-1.3.4-2.5.8-3.4 1.2-.1.1-.2.1-.3.1-.3 0-.7-.4-1.4-1.1-.5-.5-.7-.9-.7-1.2 0-.2.1-.4.2-.4.2 0 .7.1 1.3.2.2 0 .8 0 1.8-.1.7 0 1.5-.1 2.2-.1-.4-1.2-.8-2-1.1-2.4-.1-.2-.2-.3-.2-.4 0-.3.1-.4.3-.4 1 0 1.6.1 1.9.2zm4.1 19.1c1.2-.1 2.2-.2 3-.4.1-.4.2-.8.3-1.3.1-.6.2-1.1.2-1.5 0-.5-.2-.8-.7-.8-.5 0-1.5.1-3 .4-1.5.3-2.5.5-2.9.5l.4 3.4c.6 0 1.5-.1 2.7-.3zm5.3-21c.6.2 1 .5 1 .8 0 .2-.1.4-.3.8-.4.8-.7 1.4-.8 1.8-.1.2-.1.3-.2.4.6-.2 1.2-.4 1.6-.5.4-.1.7-.2 1-.2.5 0 1 .1 1.6.2.7.3 1 .6 1 .8 0 .2-.1.4-.4.6-.3.3-.6.4-.9.4-1.5 0-2.8.1-3.8.2-.4.1-.7.1-1.1.2-.5.9-1.1 1.9-1.6 2.8-.2.2-.5.3-.6.3-.2 0-.2 0-.2-.1.3-.9.5-1.8.7-2.6-.3-.1-.6-.2-.8-.4-.5-.3-.7-.5-.7-.6 0-.1.1-.2.2-.2.7-.1 1.3-.3 1.7-.4.1-.4.1-.8.2-1.3.2-.9.3-1.7.3-2.2 0-.1-.2-.4-.6-.8 0-.2.2-.3.7-.3.7 0 1.4.1 2 .3zm16 15.9c.3.7.4 1.3.4 1.8 0 .6-.2 1.3-.5 2-.2.5-.5.9-.8 1.2-.2.2-.4.3-.6.3-.5 0-.9-.2-1.1-.6-.1-.4-.2-.7-.2-1.1 0-.2.1-.5.2-.8 1.2-1.4 1.8-2.3 2-2.7.1-.3.2-.4.4-.4 0-.1.1.1.2.3zm6.9-14.9c.5.3.7.6.7.8 0 .2-.1.4-.1.5-.1.2-.2.3-.4.3-.9.2-1.9.4-2.9.6.5.3.8.5.8.8 0 .1 0 .1-.1.2-.1.3-.2.7-.3 1.3h.1c.2-.1.4-.1.6-.1 1.1 0 1.7.4 1.7 1 0 .2-.1.4-.3.4-.8.2-1.5.4-2.2.6l-.1 2.7c.6-.1 1.1-.2 1.8-.4.6-.1 1.1-.2 1.2-.2.1 0 .1.1.1.3 0 .1-.1.2-.3.3-.8.5-2 1.2-3.6 2-.9.5-1.9 1.1-3.1 1.8-.2.2-.3.2-.4.2-.3 0-.7-.3-1.3-1-.5-.7-.7-1.1-.7-1.4 0-.3.1-.5.2-.5.4 0 .8-.1 1.2-.1.8-.1 1.7-.3 2.8-.6v-2.8c-.3.1-.4.1-.5.1-.5 0-1-.1-1.3-.2-.4-.1-.5-.3-.5-.5s.1-.4.2-.4c.7-.1 1.4-.3 2.1-.5-.1-.6-.1-1.3-.2-1.8 0-.3-.1-.5-.3-.8-1.1 0-1.8-.2-2.1-.6-.2-.2-.4-.4-.4-.6 0-.1.1-.2.2-.2 1.7-.1 3-.3 4-.5.8-.2 1.4-.4 2-.7.1-.1.3-.1.4-.1.3-.1.6 0 1 .1zm-2.9 15.1c.2 1.1.5 1.8.8 2.2.3.6.6 1 1 1.2.2-.1.3-.2.4-.3 1.4-1 2.5-2 3.3-3.2.6-.8.9-1.5.9-2.3l-.1-.5c0-.3.1-.4.3-.4.5 0 1.1.2 1.8.6.7.5 1.1.9 1.1 1.2 0 .1-.1.2-.2.3-.3.2-.6.5-.8.8-1.8 2.2-3.4 3.8-5 4.8h.1c.8.3 1.5.4 2.4.4 1.4 0 2.7-.1 3.9-.5.2 0 .4-.2.4-.5l-.9-1.8v-.2c.1 0 .2.1.2.1.8.8 1.7 1.6 2.6 2.3.2.2.4.3.6.3.4.1.7.5.7 1 0 .2-.1.5-.3.6-.3.3-.7.5-1.2.7-1.6.4-3 .6-4.3.6-.9 0-1.8-.1-2.5-.3-.8-.1-1.5-.4-2.1-.6-.6-.3-1.2-.6-1.6-1-1.2.6-2.4 1.1-3.5 1.5-1.4.4-2.5.6-3.4.6-.1 0-.2-.1-.2-.1 2.4-1.1 4.4-2.1 6-3.1-.2-.2-.3-.4-.4-.6-.4-.6-.6-1.3-.8-2-.1-.7-.4-1.5-.8-2.3 0-.2 0-.3.1-.3.7 0 1.3.3 1.5.8zm3-2.9c.6.2 1.1.4 1.3.6.2.2.3.5.3.8 0 1.1-.4 1.6-1.3 1.6-.3 0-.8-.4-1.3-1.3-.6-.9-.9-1.5-.9-1.8 0-.1.1-.2.2-.2.5 0 1 .1 1.7.3zm8.8-13.1c.5.3.7.6.7.8 0 .2-.1.3-.1.5-.1.2-.2.3-.4.3-1.1.3-2.1.5-3.2.7.5.3.7.5.7.7 0 .1 0 .1-.1.2-.1.3-.2.8-.3 1.5v.3c.2-.1.4-.1.5-.2.3-.1.5-.1.6-.1 1.1 0 1.7.4 1.7 1 0 .2-.1.4-.3.4-.9.3-1.8.5-2.6.6l-.1 2.5c.6-.1 1.1-.3 1.7-.4.3-.1.5-.1.8-.1.4 0 .8.2 1.3.5.4.3.6.7.6 1.2 0 .1-.1.2-.4.2-1.9 0-3.7.1-5.2.3-.8.1-1.5.2-2.4.4-.3.1-.5.1-.6.1-.3 0-.7-.1-1.1-.4-.4-.2-.6-.4-.6-.6 0-.1 0-.2.1-.2 1.3-.2 2.6-.4 3.7-.6v-2.6c-.2.1-.4.1-.5.1-.5 0-1-.1-1.3-.2-.4-.1-.5-.3-.5-.4 0-.2.1-.4.2-.5.8-.1 1.5-.3 2.1-.4 0-.8-.1-1.6-.3-2.3 0-.3-.1-.6-.4-.8-.7-.1-1.1-.3-1.4-.6-.3-.3-.4-.4-.4-.6 0-.1.1-.2.2-.2 1.6-.1 2.9-.3 3.9-.5.7-.2 1.4-.4 1.9-.7.1-.1.3-.1.4-.1.4 0 .7 0 1.1.2zm-.1 14.1c.7.2 1.4.4 2.2.7.9.4 1.6.8 1.9 1.1.2.3.4.6.4.9 0 .4-.1.7-.3 1.1-.2.3-.5.5-.8.5-.4 0-.8-.1-.9-.2-.3-.2-.7-.6-1.2-1.3-.8-1.1-1.3-1.7-1.6-2-.4-.3-.5-.5-.5-.7 0-.1 0-.2.1-.2 0 0 .3.1.7.1zm21-11.6c.1 0 .1 0 0 0 .1-.3.2-.6.2-.8-.2-.3-.4-.5-.4-.8 0-.1.1-.2.5-.2.5 0 1.2.2 2 .6.5.2.8.5.8.8 0 .2-.1.3-.2.4-.2.2-.4.5-.6.9-.6.9-1.1 1.8-1.7 2.6.2-.1.5-.1.7-.1.9.1 1.4.5 1.4 1.4 0 .2-.4.3-1.1.4-.8.1-1.5.1-2.4.3-.4.5-.7.9-1.1 1.3-.4.5-.8.9-1.3 1.3.4-.1.8-.2 1.1-.3.4-.1.7-.3 1.1-.5 0-.1.1-.1.1-.1.2 0 .7.2 1.5.7.8.5 1.3 1 1.3 1.3 0 .2-.1.3-.4.4-.6.2-1.1.5-1.8.8-.6.4-1.2.8-2 1.3h-.1c.3.3.5.6.6.8.1.2.2.5.4.7.4-.1.8-.2 1.3-.4.8-.2 1.3-.4 1.4-.4.1 0 .1.1.1.2s-.1.2-.4.3c-.6.3-1.3.7-2.2 1.1 0 .1.1.2.1.3.2.8.3 1.5.3 2.2 0 1.9-.3 3.2-.9 4-.5.7-1.1 1.1-1.6 1.1-.3 0-.5-.1-.6-.4-.6-.9-1.4-1.8-2.5-2.7 0-.1 0-.1.1-.1 0 0 .2.1.5.2.4.1.9.2 1.3.2.5 0 .9-.2 1.1-.7.3-.6.4-1.2.4-1.7 0-.6 0-1.1-.1-1.6l-.6.3c-1.1.5-2.5 1.2-4 2-.2.2-.4.2-.5.2-.2 0-.6-.3-1-.8s-.6-.9-.6-1.1c0-.2.1-.3.2-.3.5 0 1-.1 1.5-.2 1.2-.3 2.9-.7 4.9-1.2-.1-.5-.1-.9-.2-1.1-.1-.3-.3-.7-.6-1.1-.1-.1-.1-.2-.1-.2 0-.1 0-.2.1-.2h.4c.4.1.6.3.8.4.4-.6.8-1.3 1.2-2.2v-.2c0-.1-.1-.2-.3-.2-.2 0-.4 0-.6.1-.5.1-1 .3-1.5.5-.3.1-.5.2-.6.2h-.2c-.7.6-1.5 1.2-2.2 1.7-1.5 1.1-2.9 1.8-4.2 2.3-.5.2-.9.4-1.1.4V52c2.3-1.8 4.4-3.5 6.2-5.2-.1-.1-.1-.2-.1-.3 0-.1.1-.2.2-.2s.2 0 .3.1c.7-.7 1.3-1.5 2-2.2-1.2.3-2.6.6-4.2 1.1-.3.1-.5.1-.5.1-.1 0-.5-.2-1.1-.5-.6-.5-.9-.9-.9-1.3 0-.1.1-.1.2-.1 1 0 2-.1 3-.3.7-.1 1.6-.2 2.6-.4.1-.8.1-1.5.1-2.1-.5.1-.9.1-1.2.1-1.2 0-2-.2-2.3-.7-.3-.3-.4-.5-.4-.6 0-.1.1-.2.2-.2 1.5-.1 2.8-.2 3.9-.4.1-1.3.1-2.1 0-2.5-.1-.4-.2-.6-.3-.8-.2-.2-.2-.4-.2-.5 0-.2.1-.4.5-.4.6 0 1.1.1 1.7.4.8.3 1.2.5 1.2.8 0 .1-.1.2-.1.4-.1.4-.3 1.1-.4 2.1.2-.1.4-.1.6-.2.2-.1.3-.1.5-.1.1-.3.4-.2.8-.1zm-.8 2c-.5.1-1 .1-1.5.2-.1.6-.1 1.3-.2 2 .1 0 .2 0 .3-.1.6-.7 1-1.4 1.4-2.1zm8.5-3.4c.6.4 1 .8 1 1.1 0 .2-.1.5-.2.6-.2.2-.4.4-.4.5-.9 2.1-1.7 3.7-2.5 5-.2.3-.4.5-.6.8 1.3-.4 2.7-.9 4.2-1.6.4-.2.8-.3 1.1-.3.4 0 1 .2 1.5.5.6.3.8.7.8 1 0 .4-.2.6-.7.6-.5.1-1 .1-1.6.2-.6.1-1.4.2-2.2.4.2.1.5.3.7.4.6.2.9.5.9 1 0 .1-.1.3-.1.5-.2.4-.4.8-.5 1.2-.4 2.2-.9 3.8-1.6 4.8l-.1.1c.4.5.8 1 1.2 1.3.6.6 1.4 1.1 2.3 1.7.7.4 1.8.9 3.4 1.5.2.1.3.2.3.4s-.2.3-.5.4c-.9.1-2.3.2-4 .2-.9 0-1.5-.3-2-.8-.5-.6-1.1-1.4-1.7-2.4-.2-.2-.3-.5-.4-.7-.7.6-1.5 1-2.4 1.4-1.2.5-2.3.7-3.5.7-.2 0-.4 0-.4-.1 1.8-.6 3.3-1.5 4.6-2.7.3-.2.6-.5.8-.8-.5-.8-.9-1.7-1.4-2.7-.3-.5-.8-1-1.5-1.6-.2 0-.2-.1-.2-.4 0-.1.2-.2.7-.2 1.1 0 1.7.2 1.9.6.5 1.2 1.1 2.1 1.5 2.7.1-.3.2-.5.2-.8.4-1.1.5-2.4.5-3.9 0-.6-.1-1-.2-1.2-.1 0-.1-.1-.1-.1-.4.1-.9.1-1.3.2-.1.1-.3.1-.3.1-.3-.1-.6-.1-.9-.2-.6.7-1.1 1.2-1.5 1.5-.5.4-.8.6-.9.6-.1 0-.1-.1-.1-.2 1-1.8 1.8-3.5 2.4-5.2.4-1.2.8-2.5 1.1-3.8.1-.8.2-1.3.2-1.7l-.1-.7c0-.1.1-.2.5-.2.6-.3 1.3-.1 2.1.3zm29.9-.2c.5.4.7.8.7 1.4 0 .2-.2.2-.5.2-3.3 0-6.4.2-9.2.6-1.3.1-2.7.4-4.2.7-.4.1-.7.2-.8.2-.1 1-.2 6.2-.4 15.8 0 .8.1 1.4.3 1.6.6 0 2.8-.1 6.4-.4 3.8-.3 6.5-.6 7.9-.8.3 0 .6-.1.8-.1.4 0 .8.2 1.4.7.7.5 1 1 1 1.5 0 .7-.3 1-.8 1-1.5-.2-3-.4-4.7-.4-2.2 0-4.2.1-6.1.2-2.1.1-3.7.3-4.8.5-.7.1-1.4.3-2.3.6-.2.1-.3.1-.3.1-.4 0-.8-.3-1.4-1-.5-.5-.8-.9-.8-1.2 0-.2.1-.4.3-.6.2-.7.4-1.5.5-2.4.2-2.8.3-6.1.3-9.8 0-2.2-.1-3.8-.3-4.7-.2-.8-.4-1.4-.7-1.9-.1-.1-.1-.2-.1-.3 0-.4.2-.6.6-.6.8 0 1.4.1 2 .4.1.1.2.1.3.1 2.4-.3 4.5-.6 6.3-.8 2-.3 3.9-.6 5.9-1.1.5-.1 1-.1 1.4-.1.3 0 .8.2 1.3.6zM227 48.8c.2.1.3.2.4.2.3-.1.6-.1.9-.2.6-.1 1.1-.4 1.6-.7.3-.2.6-.4.7-.4.2 0 .6.2 1.3.5.8.5 1.1.8 1.1 1 0 .2 0 .3-.1.4-.6.8-.9 1.4-1 1.8-.1.4-.3.8-.3 1.2.3.4.4.7.4.8 0 .1-.1.1-.1.1-.8 0-1.5.1-2.3.2-.6.1-1 .2-1.1.2v.2c-.1.5-.2.8-.6.8-.3 0-.5-.1-.6-.3-.2-.2-.3-.4-.3-.5-.2-.5-.4-1.4-.6-2.7-.1-.8-.3-1.3-.6-1.8-.2-.4-.4-.7-.6-.9 0-.1.2-.2.7-.2.3.1.7.2 1.1.3zm2.4-7.6c.1.1.2.1.3.1.7-.1 1.4-.1 2-.3.8-.1 1.7-.4 2.5-.8.5-.2.8-.4 1-.4.3 0 .8.2 1.7.6 1 .6 1.5 1.1 1.5 1.3 0 .1-.1.2-.1.3-.7.6-1.1 1.2-1.2 1.5-.2.4-.4.8-.5 1.2 0 .1-.1.1-.1.1.1.3.2.5.2.6 0 .1-.1.1-.2.1-1.3 0-2.5.1-3.8.3-1 .1-1.6.2-1.9.2-.1.5-.3.7-.6.7s-.5-.1-.6-.3c-.2-.2-.3-.4-.3-.5-.2-.4-.4-1.2-.6-2.3-.1-.7-.3-1.2-.6-1.6-.1-.4-.4-.6-.6-.8 0-.1.2-.2.7-.2.4.1.8.2 1.2.2zm-.3 11.4c.4-.1.7-.2.9-.3.2-1.2.4-2 .4-2.5 0-.1-.1-.2-.4-.2-.2 0-.5.1-1 .2-.5.2-.9.3-1.3.3l.5 2.8c.3-.1.5-.2.9-.3zm3.4-7.9c.8-.1 1.5-.2 2.1-.4.1-.8.2-1.5.2-1.9 0-.1-.1-.2-.4-.2-.3 0-.8.1-1.6.2-1 .2-1.8.3-2.5.3h-.1l.4 2.3c.5-.1 1.2-.2 1.9-.3zm2.3 3.2c.2.1.4.2.5.2.4-.1.8-.1 1.1-.2.6-.1 1.3-.4 1.8-.8.4-.2.6-.4.8-.4.2 0 .8.2 1.6.5.9.5 1.4.9 1.4 1.2 0 .2-.1.3-.1.4-.7.8-1.1 1.4-1.2 1.8-.2.5-.4.9-.4 1.3.3.4.4.7.4.9 0 .1-.1.1-.1.1-1 0-2 .1-3 .3-.8.2-1.2.3-1.5.3v.1c-.1.6-.2.8-.6.8-.3 0-.5-.1-.6-.4-.2-.2-.3-.3-.3-.5-.2-.5-.4-1.4-.5-2.8-.1-.8-.3-1.4-.5-1.9-.1-.4-.3-.7-.5-.9 0-.1.2-.2.7-.2.2.1.5.2 1 .2zM237 52c.5-.1.9-.2 1.3-.3.2-1.1.4-1.9.4-2.5 0-.1-.1-.2-.3-.2-.2 0-.6.1-1.1.1-.6.1-1.2.2-1.6.2l.3 2.9c.2 0 .5-.1 1-.2zm17.4-10.5c.3.1.5.2.6.3.6 0 1-.1 1.4-.1 1.5-.2 2.9-.4 4.1-.5v-3.9c0-1.1-.2-2-.7-2.6 0-.3.1-.5.4-.5.6 0 1.3.1 1.9.3 1.1.4 1.6.7 1.6 1 0 .2-.1.4-.2.7-.4.4-.6 1.1-.6 2.2v2.7c.7-.1 1.3-.1 1.9-.2 1.1 0 2.1-.2 3.3-.5.2 0 .4-.1.6-.1.1 0 .8.3 2 .9 1.2.6 1.8 1.1 1.8 1.3 0 .2-.1.4-.4.5-.6.4-1.1.9-1.4 1.4-.5.6-.9 1.5-1.3 2.5l-.1.1c.3.5.5.9.5 1.1-.1.2-.2.2-.4.2-2.3 0-4.5.1-6.6.3 0 1.9-.1 3.3-.1 4.2-.1 2.3-.3 4.2-.5 5.5-.3 1.4-.6 2.1-.9 2.1-.3 0-.5-.7-.6-2.1-.1-.4-.2-3.5-.2-9.4-2.2.3-3.5.4-4.1.4-.1.6-.4.9-.8.9s-.8-.1-1.1-.5c-.3-.3-.4-.5-.4-.7-.3-.7-.6-1.9-.8-3.7-.2-1.1-.5-1.9-.8-2.5-.2-.6-.5-1-.8-1.3 0-.2.3-.4 1-.4.6.2 1.1.3 1.7.4zm6.1 5.7v-4.8c-1.6.2-3.3.4-4.9.7l.7 4.5c1-.1 2.5-.2 4.2-.4zm2.4-.3c1.5-.2 2.8-.4 3.9-.7.2 0 .3-.1.4-.1.2-.5.5-1 .6-1.5.2-.6.3-1.3.3-2.1 0-.4-.3-.5-.8-.6-1 0-2.4.1-4.1.2h-.4c.1 1.8.1 3.4.1 4.8zM287 35.7c.6.4.8.7.8.9 0 .2-.1.4-.4.4-.4.2-.9.4-1.5.7-.2.1-.4.3-.6.3v.4c-.1.3-.1.7 0 1.4.8-.2 1.2-.4 1.4-.5h.2c.8 0 1.1.2 1.1.6 0 .2-.1.4-.4.6-.5.1-1.2.3-2 .4h-.3c0 .4.1.9.1 1.4.8-.2 1.2-.3 1.4-.4h.2c.8 0 1.1.2 1.1.6 0 .3-.1.5-.4.6-.5.1-1.2.2-2 .3h-.3c.1.5.1 1 .2 1.4 2.9-.2 6.3-.6 10.2-1.2v-.2c0-.2 0-.6.1-1.3-.5.1-1 .1-1.6.1h-.2c-.2 0-.4-.1-.8-.2-.3-.1-.5-.2-.5-.4s.1-.3.2-.4c1.3-.3 2-.4 2.3-.6h.6c0-.1 0-.3.1-.4.1-.4.1-.6.1-.9-.5 0-1.1.1-1.7.1h-.2c-.2 0-.4-.1-.8-.2-.3-.1-.5-.2-.5-.4 0-.1.1-.3.2-.3 1.3-.2 2.1-.4 2.4-.5h.7c.1-.4.1-.7.1-.8 0-.4-.2-.6-.6-.6h-1.3c-.3 0-.6-.1-.9-.2-.4-.1-.6-.3-.6-.5 0-.1.1-.1.2-.2.6 0 1-.1 1.3-.2.3-.1.8-.4 1.6-.8.2-.1.3-.2.4-.2.2 0 .7.2 1.7.6.8.5 1.3.9 1.3 1.2 0 .2-.1.4-.4.7-.6.6-1 1.1-1.1 1.7-.5 2.4-.9 3.9-1.2 4.5.6-.1 1.3-.1 1.9-.3h.7c.4 0 1.2.4 2.3 1 1.2 1 1.8 1.6 1.8 1.9 0 .4-.4.6-1.1.6-1.2 0-2.7.3-4.6.8-.1 0-.1 0-.1-.1s.2-.4.6-1.1c.4-.6.5-.9.5-1.1l-.1-.1c-.2-.1-.4-.1-.6-.1-2.3 0-4.7.2-7.2.5-2.1.2-4.8.6-8 1.2-.6.1-1 .2-1.1.2-.1 0-.3 0-.4-.1-.1.4-.1.9-.3 1.5-.3.8-.5 1.4-.7 1.7-.2.2-.3.3-.4.3-.4 0-.8-.2-1.1-.6-.2-.3-.3-.7-.3-1.1 0-.3.1-.6.2-.8.4-.5.9-1.7 1.4-3.4.1-.2.2-.4.3-.4.2 0 .5.3.7.9 0 .1 0 .1.1.2.7 0 1.5-.1 2.3-.1-.5-3.6-.8-5.7-1-6.3-.1-.3-.3-.6-.5-.8-.2-.2-.4-.4-.4-.5 0-.2.1-.4.5-.4.5 0 1 .1 1.5.4.1.1.2.1.3.1.1-.2.2-.4.3-.5.2-.4.4-.9.6-1.6 0-.2.1-.3.1-.3 1 .3 1.4.5 2.1.9zm-.4 11.8c.1.1.3.1.5.1.7 0 1.5-.1 2.3-.2 1-.1 1.8-.3 2.6-.4.6-.2 1.1-.4 1.6-.6.1-.1.1-.1.2-.1.2 0 .8.3 1.6.8.9.6 1.3 1.1 1.3 1.4 0 .2-.1.3-.4.4-.6.2-1.3.4-2.1.7-.6.3-1.3.6-2.1 1 .1.1.2.3.3.4.1.1.2.3.2.4 2.7-.3 4.9-.6 6.6-1h.5c.6 0 1.2.2 2 .6.7.5 1 1.1 1 1.6s-.4.7-1 .7c-.5 0-1.4 0-2.7-.1-.8-.1-1.5-.1-2-.1-1.4 0-2.6 0-3.8.1.2.6.3 1.3.3 1.9 0 2.2-.4 3.7-1.1 4.6-.6.8-1.2 1.3-1.8 1.3-.3 0-.5-.1-.6-.4-.5-.9-1.3-1.7-2.3-2.6 0-.1 0-.2.1-.2 0 0 .2.1.4.1.4.1.7.1 1.1.1.6 0 1.1-.3 1.3-.9.3-.8.4-1.5.4-2.1 0-.6 0-1.3-.1-1.8-.8.1-1.5.1-2.2.2-1.8.1-3.5.4-5.3.7-.4.1-.8.2-1.1.2-.5 0-1-.2-1.6-.6-.5-.4-.7-.7-.7-.8 0-.2.1-.4.2-.4 1.4 0 4.3-.2 8.9-.8.5-.1 1.1-.1 1.5-.2-.1-.2-.1-.4-.2-.6-.1-.3-.4-.7-.7-1-.2-.1-.2-.2-.2-.2 0-.1 0-.2.1-.2h.4c.6.2 1 .4 1.3.6h.1c.4-.5.9-1.1 1.4-1.7.1-.1.1-.1.1-.2s-.1-.2-.4-.2c-.3 0-.7.1-1.2.1-.9.1-1.8.4-3 .7-.5.2-.9.2-1.1.2-.3 0-.7-.2-1.2-.7-.4-.3-.5-.6-.5-.8 0-.1.1-.2.2-.2.5.1.7.1.9.2zm5.8-7.9c.5.3.7.5.7.6 0 .1 0 .2-.1.2-.5.5-.8.8-1.1 1.2.3.2.6.4.8.5.2.2.3.3.3.4 0 .9-.4 1.4-1 1.4-.1 0-.1 0-.2-.1l-.3-.3c-.2-.2-.4-.5-.6-.8l-.7.7c-.4.3-.8.5-1.3.8-.1.1-.3.1-.4.1-.1 0-.1 0-.1-.1.8-.9 1.3-1.7 1.7-2.3l-1.2-1.2c-.1-.1-.1-.1-.1-.2s0-.2.1-.2.1 0 .2.1c.5.2 1 .4 1.4.6.1-.4.3-1 .3-1.6 0-.1.1-.1.2-.1.4 0 .8.1 1.4.3zm-.2-5.2c.5.2.7.4.7.6 0 .1 0 .2-.1.2-.4.5-.7 1-1 1.4.1 0 .1.1.1.1.4.2.7.4 1 .6.2.2.3.3.3.4 0 .9-.4 1.4-1 1.4-.1 0-.1 0-.2-.1l-.3-.3c-.2-.2-.5-.5-.7-.9-.3.4-.5.6-.8.9-.3.3-.7.6-1.1.8-.1.1-.2.1-.3.1-.1 0-.1 0-.1-.1.6-1.1 1.1-2 1.4-2.7-.4-.3-.7-.7-1-1-.1-.1-.1-.1-.1-.2s0-.2.1-.2.1 0 .2.1c.4.2.8.3 1.1.5.1-.5.2-1.1.3-1.8 0-.1.1-.1.2-.1.3-.1.7 0 1.3.3zm34.8 6.8c.9.5 1.3 1 1.3 1.3 0 .1-.1.2-.4.3-.6.2-.9.5-1 .7-.3.6-.5 1.1-.7 1.4l.2.2c.4.6.6.9.6 1.1-.1.2-.1.3-.3.3-1.6 0-3.2.1-4.7.3v2.1c1.1-.1 2.3-.3 3.4-.4.7 0 1.6-.3 2.8-.7.3 0 .9.2 1.8.5.9.5 1.4.9 1.4 1.2 0 .2-.1.4-.2.5-.6.5-.9 1-.9 1.5-.5 2-.9 3.3-1.5 3.9-.6.6-1 .9-1.3.9-.2 0-.4-.1-.5-.4-.7-1-1.5-1.9-2.3-2.8l-.2-.2v-.1c1.2.2 1.9.4 2 .4.4 0 .6-.3.8-.8.2-.7.4-1.3.4-1.8 0-.2-.1-.3-.2-.4-.3-.1-.6-.1-1.1-.1-1.1 0-2.5.1-4.4.3 0 3 0 6-.1 8.9 0 .7-.1 1.1-.4 1.3-.3.3-.6.4-.8.4-.3 0-.5-.2-.8-.6-.3-.4-.4-1-.4-1.7 0-.2 0-.6.1-1.1.1-.8.2-1.4.2-1.7 0-1.1.1-2.2.1-3.3-.5.6-1.1 1.1-1.7 1.7-1.1.9-2.3 1.7-3.4 2.3-1.1.6-2.1 1-3.1 1.3-1 .3-1.5.4-1.7.4 1.3-.8 2.3-1.4 3-2 1.5-1.1 2.9-2.1 3.9-3.2.9-.9 1.6-1.6 1.9-2.2v-.1c-.9.2-1.6.3-2.2.5-.7.1-1.5.5-2.6 1.1-.1.1-.3.1-.5.1-.3 0-.6-.1-.9-.5-.3-.3-.4-.6-.4-.9 0-.1 0-.2.1-.4.3-.2.6-.6.9-1.1.2-.6.3-1.2.3-1.8 0-.3-.1-.6-.1-1-.1-.4-.2-.6-.2-.7 0-.1.1-.2.3-.2.4 0 .8.1 1.3.3.3.1.5.2.7.3 1-.1 2.4-.2 4.1-.6.1 0 .2 0 .4-.1v-.5c0-.6-.1-1.1-.4-1.4-.1-.1-.1-.3-.2-.4-1.3.2-2.2.3-2.6.3-.3 0-.6-.1-.9-.2-.4-.1-.6-.3-.6-.6 0-.1.2-.3.6-.3 1.5-.1 2.7-.2 3.5-.4.9-.2 2.4-.6 4.4-1.4.5-.2.9-.3 1.2-.3.4 0 1 .2 2 .6zM316.4 35c.8.3 1.2.6 1.2.8 0 .2-.1.4-.2.4-.2.2-.5.5-.7.8.5-.1.9-.3 1.3-.4.6-.2 1-.3 1.2-.3 1.1.1 1.7.4 1.7.9 0 .4-.2.6-.7.6-.6.1-1.3.2-2.1.4-.6.1-1.1.2-1.6.2-.4 0-.6 0-.8-.1-.9 1.2-1.7 2.1-2.5 2.8-.5.5-1.1.9-1.8 1.3-.2.1-.4.2-.5.2-.1 0-.1 0-.1-.1.7-.8 1.3-1.7 1.9-2.7.8-1.3 1.3-2.4 1.7-3.5.1-.2.2-.7.2-1.3 0-.2.1-.4.3-.4.2.1.7.2 1.5.4zm3.7 12.2c-.2 0-.4.1-.5.1-2 .4-3.3.6-3.7.6-.1.5-.2 1.3-.4 2.2 0 .1.1.1.2.1s.4 0 .6-.1c1.2-.3 2.5-.5 3.8-.7v-2.2zm-3.4-8c.6.1 1.2.2 1.5.3.3.1.4.3.4.5 0 .4-.1.7-.4 1.1-.3.4-.6.5-.9.5-.1 0-.3-.1-.4-.2-.3-.2-.7-.8-1.2-1.6-.1-.1-.1-.1-.1-.2 0-.2.1-.4.2-.4.3-.1.6 0 .9 0zm8.1-4.9c.8.2 1.1.5 1.1.8 0 .2-.1.3-.1.4l-.6.6c.7-.1 1.4-.3 2-.4.7-.1 1.2-.2 1.5-.2 1.2.1 1.8.4 1.8 1 0 .3-.3.5-.8.5-.7.1-1.5.2-2.6.3-.7.1-1.3.1-1.9.1-.4 0-.6 0-.8-.1-.7 1-1.3 1.7-1.9 2.3-.4.4-.9.7-1.5 1.1-.2.1-.3.2-.4.2-.1 0-.1 0-.1-.1.5-.7 1-1.5 1.4-2.4.6-1.1 1-2.1 1.2-3 .1-.2.1-.6.1-1.2 0-.1.1-.2.2-.2s.6.1 1.4.3zm-3.3 9.1c.5.4.8.7.8.8 0 .2-.1.4-.1.5-.1.2-.1.5-.1.7.9-.2 1.7-.4 2.4-.6h.1c0-.1.1-.4.1-.7.1-.4.2-.6.2-.7 0-.4-.2-.6-.7-.6-1.2.2-2.2.4-3 .5.1.1.2.1.3.1zm4.2-5.3c.8.1 1.4.2 1.9.4.4.1.5.4.5.6 0 .4-.1.6-.4.9-.3.3-.5.4-.8.4-.2 0-.4-.1-.6-.2-.4-.3-1-.8-1.7-1.7-.1-.1-.1-.1-.1-.2s.1-.2.2-.2c.3-.1.7-.1 1 0zm31.7.2c.5.4.8.9.8 1.5 0 .1-.1.2-.4.2-2.6 0-4.9.1-7.1.4.4.3.8.4 1 .5.2.1.3.3.3.5s-.1.4-.1.5c-.6 1.2-1.1 2.7-1.5 4.3.7-.2 1.5-.5 2.4-.8.5-.2 1-.4 1.4-.4.2 0 .8.2 2 .7 1 .6 1.5 1.1 1.5 1.5 0 .2-.2.4-.6.7-.8.6-1.2 1.2-1.3 1.8-.6 2.3-1.1 3.8-1.4 4.6 1.1-.1 1.9-.2 2.6-.3 1.3-.1 2.3-.1 3.1-.1.2 0 .7.3 1.5.7.8.6 1.2 1.2 1.2 1.5 0 .4-.4.6-1.1.6-.2 0-.6-.1-1.2-.2s-1.1-.2-1.5-.2c-2.7 0-5.3.1-7.8.1-2.1.1-4.3.2-6.7.5-1.1.1-2.4.4-4 .6-.3 0-.4.1-.4.1-.2 0-.6-.3-1.2-.8-.5-.6-.7-1-.7-1.1 0-.1.1-.2.2-.2.7 0 1.4-.1 2.3-.1 1.6-.1 3.2-.2 4.6-.4.7-2.1 1.4-4.3 2-6.8-1.3.2-2.3.2-2.7.2-.3 0-.7-.1-1.1-.3-.4-.2-.6-.4-.6-.6 0-.2.2-.3.7-.4 1.7-.1 3.1-.2 4-.4h.1c.1-.5.2-1 .4-1.4.3-1 .4-2.2.4-3.5 0-.4-.1-.8-.1-1.3-.6.1-1.3.2-2 .4-.4.1-.7.1-.8.1-.4 0-.8-.2-1.4-.6-.5-.3-.7-.6-.7-.8 0-.1.1-.2.2-.2 2.3-.3 4.2-.6 6-.8 1.6-.2 3.3-.6 5-1 .4-.1.8-.1 1.1-.1.5.2 1 .4 1.6.8zm-4.9 16.2c0-.4.2-1.4.6-3.2.4-1.7.6-2.7.6-3.1 0-.5-.2-.7-.7-.7-1.2.2-2.2.3-3.2.4-.6 2.5-1.3 4.9-1.8 6.9 1.7 0 3.2-.1 4.5-.3zm24.4-11.9c.5.3.7.6.7.8 0 .2 0 .3-.1.5s-.2.3-.4.3c-.8.2-1.6.4-2.3.6-.1.8-.1 1.5-.1 2.1v.8c.4.1.8.2 1.2.4.7.3 1.1.5 1.4.7.2.2.3.4.3.6 0 .3-.1.6-.3 1-.2.3-.5.4-.8.4-.3 0-.6-.1-.7-.2-.2-.1-.5-.4-.8-.9-.1-.1-.2-.2-.2-.4l.2 8.5c0 .4-.2.7-.6 1.1-.2.4-.6.7-.9.7-.4 0-.8-.3-1.1-1-.3-.4-.4-.9-.4-1.5.3-1.3.5-2.7.6-4.2.2-1 .3-2.5.4-4.5-.9 1.6-1.8 2.8-2.6 3.7-.7.7-1.6 1.3-2.6 1.9-.4.3-.8.4-1.2.4h-.1c1.2-1.1 2.3-2.4 3.3-3.9.9-1.3 1.8-3 2.6-5.1-.8.2-1.4.2-1.8.2-1.1 0-1.8-.2-2.1-.6-.3-.2-.4-.4-.4-.5 0-.1.1-.2.2-.2 2-.1 3.6-.4 4.8-.7 0-3.2-.1-5.1-.3-5.7-.2-.7-.4-1.4-.8-2.1 0-.2.1-.4.4-.4.7 0 1.5.2 2.3.7.8.4 1.1.7 1.1 1.2 0 .2-.1.4-.2.6-.3 1.8-.4 3.4-.6 4.9.2-.1.4-.1.6-.3.2-.1.3-.1.5-.1.1 0 .4 0 .8.2zm9.3 4.5c.9.5 1.3.9 1.3 1.2 0 .2-.1.3-.1.4-.3.4-.5.6-.5.7-.6 1.7-1.3 3-2 3.9 1.7 1.5 4.7 3 9 4.3 0 .2-.2.4-.6.4-2.7.4-4.2.6-4.6.6-.7 0-1.1-.1-1.3-.4-1.1-1.1-2.2-2.4-3.4-3.9-1.1 1.1-2.1 1.8-3.2 2.3-1 .4-2.1.6-3.2.6-.6 0-.9-.1-.9-.3.8-.2 1.6-.5 2.3-.8 1.1-.5 2.3-1.4 3.4-2.5.2-.2.4-.5.6-.7-.3-.4-.6-.7-.8-1.1-.6-.8-1.3-1.5-2-1.9-.3 0-.5-.2-.5-.4 0-.1.3-.1.8-.1.4 0 .8.1 1.2.3.5.4.9.8 1.3 1.3.2.3.4.6.7.9.3-.5.5-1 .7-1.6.3-.8.5-1.7.5-2.5 0-.2-.1-.4-.2-.7 0-.1.1-.2.4-.2.2-.1.6 0 1.1.2zm-4.7-2.3c.8.3 1.1.6 1.1.8 0 .1-.1.1-.1.2-.3.2-.6.4-.9.8-.7.6-1.3 1.1-1.9 1.4-.4.2-.8.4-1.2.5-.2.1-.3.1-.4.1-.1 0-.1 0-.1-.1.3-.4.6-.8.9-1.3.4-.6.6-1.2.8-1.7.1-.1.1-.4.1-.7 0-.1.1-.2.2-.2.2-.1.7 0 1.5.2zm8-4.3c.5.4.7.8.7 1.4 0 .2-.2.2-.5.2-2.3 0-4.3.2-6.3.6-.9.2-1.8.4-2.9.8-.4.1-.6.2-.7.2-.4 0-.8-.2-1.2-.5-.4-.3-.6-.5-.6-.7 0-.1.1-.2.2-.2 1.8-.3 3.4-.6 4.8-1 1.3-.3 2.7-.7 4-1.2.4-.1.6-.1.9-.1.6 0 1.1.2 1.6.5zm-5.2-4.3c.8.2 1.3.4 1.6.6.2.2.4.4.4.7 0 1.2-.5 1.8-1.5 1.8-.4 0-1-.4-1.6-1.3-.8-.9-1.1-1.5-1.1-1.8 0-.2.1-.3.2-.4.5 0 1.1.2 2 .4zm2.4 7.6c1.2.2 2 .5 2.7.7.5.3.7.6.7 1.1 0 .3-.1.6-.4.9-.3.3-.6.4-.8.4-.3 0-.6-.1-.9-.4-.6-.4-1.5-1.2-2.6-2.5-.2-.1-.2-.2-.2-.3 0-.1.1-.2.2-.2.4.2.8.3 1.3.3zM112.3 85.5c-.5.3-1.6.5-2.9.5-3.1 0-5.5-2-5.5-5.6 0-3.5 2.4-5.8 5.8-5.8 1.4 0 2.3.3 2.6.5l-.3 1.2c-.5-.3-1.3-.5-2.2-.5-2.6 0-4.3 1.7-4.3 4.6 0 2.7 1.6 4.5 4.3 4.5.9 0 1.8-.2 2.3-.5l.2 1.1zm9.1-3.7c0 2.9-2 4.2-4 4.2-2.2 0-3.8-1.6-3.8-4.1 0-2.7 1.7-4.2 3.9-4.2 2.4 0 3.9 1.6 3.9 4.1zm-6.3.1c0 1.7 1 3.1 2.4 3.1s2.4-1.3 2.4-3.1c0-1.3-.7-3.1-2.4-3.1s-2.4 1.5-2.4 3.1zm8.5-7.8h1.4v11.7h-1.4V74.1zm5 8c0 2 1.3 2.8 2.7 2.8 1 0 1.7-.2 2.2-.4l.2 1c-.5.2-1.4.5-2.6.5-2.5 0-3.9-1.6-3.9-4s1.4-4.3 3.7-4.3c2.6 0 3.3 2.3 3.3 3.7v.7h-5.6zm4.2-1c0-.9-.4-2.4-2-2.4-1.5 0-2.1 1.3-2.2 2.4h4.2zm.4-6.7-2 2.4h-1l1.4-2.4h1.6zm10 3.5c0 .6-.1 1.2-.1 2.2v4.6c0 1.8-.4 2.9-1.1 3.6-.8.7-1.9 1-2.9 1s-2-.2-2.6-.7l.4-1.1c.5.3 1.3.6 2.3.6 1.5 0 2.6-.8 2.6-2.8v-.9c-.4.7-1.3 1.3-2.5 1.3-2 0-3.4-1.7-3.4-3.9 0-2.7 1.8-4.2 3.6-4.2 1.4 0 2.1.7 2.5 1.4l.1-1.2h1.1v.1zm-1.5 3.1c0-.2 0-.5-.1-.7-.3-.8-1-1.5-2-1.5-1.4 0-2.4 1.2-2.4 3 0 1.6.8 2.9 2.4 2.9.9 0 1.7-.6 2-1.5.1-.2.1-.5.1-.8V81zm5.7-5.4c0 .5-.3.9-.9.9-.5 0-.9-.4-.9-.9s.4-.9.9-.9.9.4.9.9zm-1.7 10.2v-8h1.4v8h-1.4zm11.4-4c0 2.9-2 4.2-4 4.2-2.2 0-3.8-1.6-3.8-4.1 0-2.7 1.7-4.2 3.9-4.2 2.4 0 3.9 1.6 3.9 4.1zm-6.3.1c0 1.7 1 3.1 2.4 3.1s2.4-1.3 2.4-3.1c0-1.3-.7-3.1-2.4-3.1s-2.4 1.5-2.4 3.1zm12.3-7c.9-.1 1.9-.2 3-.2 2.1 0 3.5.5 4.5 1.4 1 .9 1.6 2.2 1.6 4 0 1.8-.6 3.3-1.6 4.3s-2.7 1.6-4.9 1.6c-1 0-1.9 0-2.6-.1v-11zm1.5 9.8c.4.1.9.1 1.4.1 3.1 0 4.7-1.7 4.7-4.7 0-2.6-1.5-4.3-4.5-4.3-.7 0-1.3.1-1.7.1v8.8h.1zm11.4-9.1c0 .5-.3.9-.9.9-.5 0-.9-.4-.9-.9s.4-.9.9-.9.9.4.9.9zm-1.6 10.2v-8h1.4v8h-1.4zm11.4-4c0 2.9-2 4.2-4 4.2-2.2 0-3.8-1.6-3.8-4.1 0-2.7 1.7-4.2 3.9-4.2 2.3 0 3.9 1.6 3.9 4.1zm-6.4.1c0 1.7 1 3.1 2.4 3.1s2.4-1.3 2.4-3.1c0-1.3-.7-3.1-2.4-3.1-1.6 0-2.4 1.5-2.4 3.1zm14.2 3.6c-.4.2-1.2.5-2.3.5-2.4 0-4-1.6-4-4.1 0-2.5 1.7-4.2 4.3-4.2.9 0 1.6.2 2 .4l-.3 1.1c-.3-.2-.9-.4-1.7-.4-1.8 0-2.8 1.3-2.8 3 0 1.8 1.2 3 2.8 3 .8 0 1.4-.2 1.8-.4l.2 1.1zm2.7-3.4c0 2 1.3 2.8 2.7 2.8 1 0 1.7-.2 2.2-.4l.2 1c-.5.2-1.4.5-2.6.5-2.5 0-3.9-1.6-3.9-4s1.4-4.3 3.7-4.3c2.6 0 3.3 2.3 3.3 3.7v.7h-5.6zm4.2-1c0-.9-.4-2.4-2-2.4-1.5 0-2.1 1.3-2.2 2.4h4.2zm3.4 3.2c.4.3 1.2.6 1.9.6 1.1 0 1.5-.5 1.5-1.2s-.4-1.1-1.5-1.5c-1.4-.5-2.1-1.3-2.1-2.3 0-1.3 1-2.3 2.7-2.3.8 0 1.5.2 2 .5l-.4 1.1c-.3-.2-.9-.5-1.6-.5-.9 0-1.3.5-1.3 1.1 0 .7.5 1 1.5 1.3 1.4.5 2.1 1.2 2.1 2.4 0 1.4-1.1 2.4-3 2.4-.9 0-1.7-.2-2.2-.5l.4-1.1zm11.4 1.5-.1-1c-.4.6-1.3 1.2-2.4 1.2-1.6 0-2.4-1.1-2.4-2.3 0-1.9 1.7-3 4.8-3v-.2c0-.7-.2-1.8-1.8-1.8-.7 0-1.5.2-2.1.6l-.3-1c.7-.4 1.6-.7 2.6-.7 2.4 0 3 1.7 3 3.3v3c0 .7 0 1.4.1 1.9h-1.4zm-.2-4c-1.6 0-3.4.2-3.4 1.8 0 .9.6 1.4 1.4 1.4 1 0 1.7-.7 1.9-1.3 0-.1.1-.3.1-.5v-1.4zm4.1-1.8c0-.8 0-1.5-.1-2.2h1.3l.1 1.3c.4-.8 1.3-1.5 2.6-1.5 1.1 0 2.8.7 2.8 3.4v4.8h-1.4v-4.6c0-1.3-.5-2.4-1.8-2.4-1 0-1.7.7-1.9 1.5-.1.2-.1.4-.1.7v4.8h-1.4V80h-.1zm16.6 1.8c0 2.9-2 4.2-4 4.2-2.2 0-3.8-1.6-3.8-4.1 0-2.7 1.7-4.2 3.9-4.2 2.4 0 3.9 1.6 3.9 4.1zm-6.3.1c0 1.7 1 3.1 2.4 3.1s2.4-1.3 2.4-3.1c0-1.3-.7-3.1-2.4-3.1s-2.4 1.5-2.4 3.1zm19.2-7.8v9.6c0 .7 0 1.5.1 2.1h-1.3l-.1-1.4c-.4.9-1.4 1.6-2.7 1.6-1.9 0-3.4-1.6-3.4-4 0-2.6 1.6-4.3 3.6-4.3 1.2 0 2 .6 2.4 1.2v-4.8h1.4zm-1.5 7c0-.2 0-.4-.1-.6-.2-.9-1-1.7-2.1-1.7-1.5 0-2.4 1.3-2.4 3.1 0 1.6.8 2.9 2.4 2.9 1 0 1.9-.6 2.1-1.7 0-.2.1-.4.1-.6v-1.4zm5 1c0 2 1.3 2.8 2.7 2.8 1 0 1.7-.2 2.2-.4l.2 1c-.5.2-1.4.5-2.6.5-2.5 0-3.9-1.6-3.9-4s1.4-4.3 3.7-4.3c2.6 0 3.3 2.3 3.3 3.7v.7h-5.6zm4.2-1c0-.9-.4-2.4-2-2.4-1.5 0-2.1 1.3-2.2 2.4h4.2zm7.2 3c.6.4 1.6.7 2.6.7 1.5 0 2.3-.8 2.3-1.9 0-1-.6-1.6-2.1-2.2-1.8-.6-2.9-1.6-2.9-3.1 0-1.7 1.4-3 3.6-3 1.1 0 2 .3 2.5.5l-.4 1.2c-.4-.2-1.1-.5-2.1-.5-1.5 0-2.1.9-2.1 1.7 0 1 .7 1.5 2.2 2.1 1.9.7 2.8 1.6 2.8 3.3 0 1.7-1.3 3.2-3.9 3.2-1.1 0-2.2-.3-2.8-.7l.3-1.3zm13.1 1.7-.1-1c-.4.6-1.3 1.2-2.4 1.2-1.6 0-2.4-1.1-2.4-2.3 0-1.9 1.7-3 4.8-3v-.2c0-.7-.2-1.8-1.8-1.8-.7 0-1.5.2-2.1.6l-.3-1c.7-.4 1.6-.7 2.6-.7 2.4 0 3 1.7 3 3.3v3c0 .7 0 1.4.1 1.9h-1.4zm-3.8-9.3c0-1.1.4-1.7 1.1-1.7.4 0 .6.1 1 .4.3.1.5.3.7.3.3 0 .4-.1.5-.7h.8c0 1.1-.3 1.7-1.1 1.7-.3 0-.7-.1-1-.3-.3-.2-.5-.3-.7-.3-.3 0-.4.3-.4.7h-.9v-.1zm3.5 5.3c-1.6 0-3.4.2-3.4 1.8 0 .9.6 1.4 1.4 1.4 1 0 1.7-.7 1.9-1.3 0-.1.1-.3.1-.5v-1.4zm11.3 0c0 2.9-2 4.2-4 4.2-2.2 0-3.8-1.6-3.8-4.1 0-2.7 1.7-4.2 3.9-4.2 2.4 0 3.9 1.6 3.9 4.1zm-6.3.1c0 1.7 1 3.1 2.4 3.1s2.4-1.3 2.4-3.1c0-1.3-.7-3.1-2.4-3.1s-2.4 1.5-2.4 3.1zm14.6-7.2h1.4v7.4c0 2.9-1.4 3.8-3.4 3.8-.5 0-1.2-.1-1.5-.3l.2-1.2c.3.1.7.2 1.2.2 1.3 0 2-.6 2-2.7v-7.2h.1zm11.3 7.1c0 2.9-2 4.2-4 4.2-2.2 0-3.8-1.6-3.8-4.1 0-2.7 1.7-4.2 3.9-4.2 2.3 0 3.9 1.6 3.9 4.1zm-6.3.1c0 1.7 1 3.1 2.4 3.1s2.4-1.3 2.4-3.1c0-1.3-.7-3.1-2.4-3.1s-2.4 1.5-2.4 3.1zm8.2 2.4c.4.3 1.2.6 1.9.6 1.1 0 1.5-.5 1.5-1.2s-.4-1.1-1.5-1.5c-1.4-.5-2.1-1.3-2.1-2.3 0-1.3 1-2.3 2.7-2.3.8 0 1.5.2 2 .5l-.4 1.1c-.3-.2-.9-.5-1.6-.5-.9 0-1.3.5-1.3 1.1 0 .7.5 1 1.5 1.3 1.4.5 2.1 1.2 2.1 2.4 0 1.4-1.1 2.4-3 2.4-.9 0-1.7-.2-2.2-.5l.4-1.1zm7.9-2.2c0 2 1.3 2.8 2.7 2.8 1 0 1.7-.2 2.2-.4l.2 1c-.5.2-1.4.5-2.6.5-2.5 0-3.9-1.6-3.9-4s1.4-4.3 3.7-4.3c2.6 0 3.3 2.3 3.3 3.7v.7h-5.6zm4.2-1c0-.9-.4-2.4-2-2.4-1.5 0-2.1 1.3-2.2 2.4h4.2zm.4-6.7-2 2.4h-1l1.4-2.4h1.6zm10.1 0c-1.2 1.6-2.1 3.7-2.1 6.7 0 2.9.9 5 2.1 6.7h-1.1c-1-1.4-2.2-3.5-2.2-6.7s1.1-5.3 2.2-6.7h1.1zm7.8 1.9h-4.1l-.4 2.7c.2 0 .5-.1.9-.1.8 0 1.6.2 2.3.6.8.5 1.5 1.4 1.5 2.7 0 2.1-1.7 3.7-4 3.7-1.2 0-2.2-.3-2.7-.7l.4-1.1c.4.3 1.3.6 2.3.6 1.4 0 2.5-.9 2.5-2.3s-.9-2.4-3.1-2.4c-.6 0-1.1.1-1.5.1l.7-5.1h5.1v1.3h.1zm4.9 4-.1-.6c-.3.4-.8.7-1.4.7-.9 0-1.4-.7-1.4-1.3 0-1.1 1-1.7 2.8-1.7v-.1c0-.4-.1-1.1-1.1-1.1-.4 0-.9.1-1.2.3l-.2-.6c.4-.2.9-.4 1.5-.4 1.4 0 1.8 1 1.8 1.9v1.7c0 .4 0 .8.1 1.1h-.8v.1zm-.1-2.3c-.9 0-2 .1-2 1 0 .5.4.8.8.8.6 0 1-.4 1.1-.8v-1h.1zm2 9.8c1.2-1.6 2.1-3.8 2.1-6.7 0-2.9-.9-5-2.1-6.7h1.1c1.1 1.3 2.2 3.5 2.2 6.7s-1.1 5.3-2.2 6.7h-1.1z"/></svg>